:SAMPLES-PER-SECOND 30
:FULLY-SPECIFIED
:DEGREES
527
root  11.4677 32.6793 1.24261 -28.7311 -86.486 42.6232
RightUpLeg  -29.6039 -14.4702 -7.55791
RightLeg  39.0168 -10.1533 -7.13894
RightFoot  -11.9619 0.260257 2.86147
RightToes  -25.2452 -0.112587 -0.217599
Spine  11.016 -1.06997 -2.45951
Spine1  19.9744 -2.36635 -3.13704
HEad  -16.0472 -7.19438 17.8393
LeftShoulder1  0 -2.42657e-020 -4.95415e-022
LeftArm  -25.5328 -16.591 -73.059
LeftForeArm  44.5491 -24.4142 -4.56686
LeftHand  0.217377 -6.61897 -4.1321
RightShoulder  0 2.42657e-020 1.07489e-018
RightArm  -35.2258 4.83282 84.4469
RightForeArm  47.4447 24.4578 4.57373
RightHand  -1.38059 24.8387 -5.89469
LeftUpLeg  -28.6507 16.2621 -0.0996591
LeftLeg  24.9581 -5.26958 -2.05125
LeftFoot  1.67851 0.00643203 -0.43909
LeftToes  -20.4236 1.28829e-006 1.15665e-007
528
root  11.4501 32.5364 0.655708 -56.4063 -87.7835 70.4757
RightUpLeg  -31.5318 -13.4229 -10.2265
RightLeg  37.3379 -8.56124 -5.67476
RightFoot  -11.2881 0.194689 2.3475
RightToes  -28.1029 -0.131078 -0.238567
Spine  11.7933 -1.22627 -1.84665
Spine1  21.2156 -2.95939 -1.91669
HEad  -16.0056 -6.41178 15.9738
LeftShoulder1  0 -2.42657e-020 -4.95415e-022
LeftArm  -23.9436 -18.4147 -74.4771
LeftForeArm  44.731 -24.7036 -4.62848
LeftHand  0.274885 -7.27007 -4.69932
RightShoulder  0 2.42657e-020 1.07489e-018
RightArm  -34.1965 6.14453 83.4028
RightForeArm  46.9256 24.7685 4.6411
RightHand  -1.32602 24.8993 -5.63244
LeftUpLeg  -29.2749 17.7899 1.01849
LeftLeg  26.4445 -4.83252 -2.02766
LeftFoot  1.27717 0.00562715 -0.504871
LeftToes  -21.8547 1.28829e-006 1.15665e-007
529
root  11.4665 32.3606 -0.000782186 -107.731 -87.8827 122.307
RightUpLeg  -34.4463 -13.2075 -12.1709
RightLeg  35.9319 -7.58831 -4.776
RightFoot  -9.06559 0.111656 1.78603
RightToes  -30.2873 -0.145905 -0.253958
Spine  12.5793 -1.27368 -1.27941
Spine1  22.4265 -3.46419 -0.216457
HEad  -16.025 -5.91488 14.7661
LeftShoulder1  0 -2.42657e-020 -4.95415e-022
LeftArm  -21.6726 -20.5349 -76.4259
LeftForeArm  44.7856 -24.921 -4.67507
LeftHand  0.302808 -7.47212 -5.0093
RightShoulder  0 2.42657e-020 1.07489e-018
RightArm  -33.7946 7.76428 81.9312
RightForeArm  46.4408 25.0264 4.69736
RightHand  -1.40516 24.8212 -6.01059
LeftUpLeg  -30.4474 19.9308 2.02058
LeftLeg  28.2613 -4.88065 -2.23205
LeftFoot  0.963027 0.00521736 -0.62081
LeftToes  -23.4884 1.28829e-006 1.15665e-007
530
root  11.4771 32.1468 -0.698979 -132.864 -86.2953 148.499
RightUpLeg  -38.6 -14.7098 -13.2594
RightLeg  35.0712 -7.02768 -4.28161
RightFoot  -6.11391 0.0473277 1.26388
RightToes  -33.2367 -0.166833 -0.27382
Spine  13.0575 -1.22331 -0.806639
Spine1  23.096 -3.70698 0.97824
HEad  -15.2756 -5.66236 14.1614
LeftShoulder1  0 -2.42657e-020 -4.95415e-022
LeftArm  -19.4282 -22.1313 -78.625
LeftForeArm  44.794 -25.2309 -4.7419
LeftHand  0.331071 -7.81584 -5.21815
RightShoulder  0 2.42657e-020 1.07489e-018
RightArm  -33.8774 9.22397 80.5958
RightForeArm  46.709 24.8671 4.66263
RightHand  -1.64217 24.5632 -7.16473
LeftUpLeg  -31.8476 21.7169 2.53119
LeftLeg  29.6172 -4.50409 -2.19084
LeftFoot  0.860404 0.0056393 -0.751049
LeftToes  -25.4409 1.28829e-006 1.15665e-007
531
root  11.3987 31.8962 -1.43866 -135.133 -83.7739 151.982
RightUpLeg  -43.537 -18.1613 -13.2484
RightLeg  34.66 -6.12615 -3.67812
RightFoot  -6.12237 0.0423157 1.16893
RightToes  -32.1373 -0.158912 -0.266543
Spine  13.3579 -1.164 -0.66038
Spine1  23.5359 -3.78278 1.36293
HEad  -13.9724 -5.16877 13.9652
LeftShoulder1  0 -2.42657e-020 -4.95415e-022
LeftArm  -17.0836 -23.1544 -80.505
LeftForeArm  43.9693 -25.6206 -4.82765
LeftHand  0.330179 -7.69779 -5.27945
RightShoulder  0 2.42657e-020 1.07489e-018
RightArm  -33.9089 10.9003 79.611
RightForeArm  46.9892 24.1556 4.51009
RightHand  -1.74469 24.1869 -7.7617
LeftUpLeg  -32.5483 23.985 2.12928
LeftLeg  29.8686 -4.60267 -2.26355
LeftFoot  1.00937 0.00790345 -0.897228
LeftToes  -27.3605 1.28829e-006 1.15665e-007
532
root  11.1973 31.6118 -2.26904 -132.116 -81.3183 149.961
RightUpLeg  -48.2712 -22.6225 -11.7486
RightLeg  34.4804 -6.08662 -3.62867
RightFoot  -5.60765 0.0340689 1.07331
RightToes  -31.8347 -0.156757 -0.264513
Spine  13.5023 -1.17558 -0.594131
Spine1  23.7318 -3.91536 1.46629
HEad  -12.3475 -4.39351 12.9815
LeftShoulder1  0 -2.42657e-020 -4.95415e-022
LeftArm  -15.2145 -23.5863 -82.4551
LeftForeArm  43.8241 -25.6145 -4.82654
LeftHand  0.3378 -7.85406 -5.29242
RightShoulder  0 2.42657e-020 1.07489e-018
RightArm  -35.7949 12.4695 79.3941
RightForeArm  48.7933 22.8882 4.24051
RightHand  -1.84297 23.981 -8.29391
LeftUpLeg  -32.3364 26.1658 1.59241
LeftLeg  29.1358 -5.13277 -2.44198
LeftFoot  1.59991 0.0151857 -1.08757
LeftToes  -30.1927 1.28829e-006 1.15665e-007
533
root  10.9064 31.328 -3.24585 -128.352 -79.6346 147.091
RightUpLeg  -51.8937 -26.2424 -9.36111
RightLeg  35.0315 -7.26788 -4.41914
RightFoot  -4.81886 0.0275892 1.03337
RightToes  -30.0814 -0.144482 -0.252532
Spine  13.5053 -1.29418 -0.192052
Spine1  23.646 -4.23137 2.0511
HEad  -10.9797 -2.93033 10.1491
LeftShoulder1  0 -2.42657e-020 -4.95415e-022
LeftArm  -13.2451 -23.3766 -84.7505
LeftForeArm  43.8452 -25.4468 -4.79005
LeftHand  0.354101 -7.8574 -5.52743
RightShoulder  0 2.42657e-020 1.07489e-018
RightArm  -36.7128 13.3536 78.7554
RightForeArm  49.2864 21.9563 4.04692
RightHand  -2.08654 23.6493 -9.57484
LeftUpLeg  -31.4839 27.5602 1.66082
LeftLeg  27.5179 -5.72573 -2.52716
LeftFoot  2.73595 0.0316164 -1.32391
LeftToes  -32.6232 1.28829e-006 1.15665e-007
534
root  10.5871 31.0273 -4.38418 -126.106 -78.6256 145.713
RightUpLeg  -54.291 -27.1996 -7.71263
RightLeg  37.6554 -7.15909 -4.81606
RightFoot  -0.438735 -0.00041383 0.269892
RightToes  -35.8305 -0.186062 -0.290379
Spine  13.362 -1.31497 0.647764
Spine1  23.2494 -4.31177 3.2722
HEad  -9.56267 -0.825919 6.22351
LeftShoulder1  0 -2.42657e-020 -4.95415e-022
LeftArm  -11.1147 -22.7576 -87.4629
LeftForeArm  44.2985 -24.9727 -4.68691
LeftHand  0.384764 -8.04105 -5.84503
RightShoulder  0 2.42657e-020 1.07489e-018
RightArm  -36.7515 13.5872 77.4922
RightForeArm  48.5377 21.5743 3.96998
RightHand  -2.18406 22.8702 -10.3999
LeftUpLeg  -30 27.6307 2.85645
LeftLeg  25.0879 -5.29988 -2.0768
LeftFoot  4.23191 0.055371 -1.49858
LeftToes  -34.4391 1.28829e-006 1.15665e-007
535
root  10.2469 30.6848 -5.70036 -130.082 -78.0348 150.556
RightUpLeg  -58.2863 -25.2512 -5.71062
RightLeg  44.4084 -5.78066 -4.98481
RightFoot  -1.18721 -0.000757833 0.304583
RightToes  -33.8803 -0.171533 -0.27801
Spine  13.2409 -1.04108 1.86491
Spine1  22.9588 -3.71509 4.80057
HEad  -8.16869 1.76673 2.07451
LeftShoulder1  0 -2.42657e-020 -4.95415e-022
LeftArm  -10.732 -21.163 -89.995
LeftForeArm  46.22 -25.7204 -4.84601
LeftHand  0.513625 -8.83516 -7.01651
RightShoulder  0 2.42657e-020 1.07489e-018
RightArm  -35.8322 14.4237 75.8307
RightForeArm  47.7775 20.7175 3.7973
RightHand  -2.19334 22.4717 -10.6412
LeftUpLeg  -28.4291 28.0123 5.72724
LeftLeg  23.5189 -4.33339 -1.56422
LeftFoot  4.46834 0.0571494 -1.4648
LeftToes  -35.6444 1.28829e-006 1.15665e-007
536
root  9.77815 30.2744 -7.20636 -138.759 -77.5215 159.391
RightUpLeg  -60.2529 -22.3104 -3.20941
RightLeg  49.4799 -4.64559 -4.80294
RightFoot  1.17007 0.00455047 -0.0680468
RightToes  -31.9592 -0.157642 -0.26535
Spine  13.5473 -0.848559 3.22706
Spine1  23.7314 -3.00891 5.7556
HEad  -6.52228 5.30299 -1.45113
LeftShoulder1  0 -2.42657e-020 -4.95415e-022
LeftArm  -11.2977 -19.1839 -91.1353
LeftForeArm  46.4193 -27.6553 -5.27503
LeftHand  0.538221 -9.06448 -7.1574
RightShoulder  0 2.42657e-020 1.07489e-018
RightArm  -34.9594 17.1271 74.8729
RightForeArm  48.9686 18.8567 3.42442
RightHand  -2.10959 22.8299 -10.0534
LeftUpLeg  -26.3059 29.2619 10.2998
LeftLeg  23.7453 -3.6341 -1.32898
LeftFoot  3.04376 0.0353058 -1.32883
LeftToes  -37.1767 1.28829e-006 1.15665e-007
537
root  9.29256 29.8476 -8.65127 -140.14 -76.5656 160.385
RightUpLeg  -62.1181 -23.0872 -0.510969
RightLeg  54.481 -2.88929 -3.597
RightFoot  -2.21419 -0.00241906 0.25245
RightToes  -30.391 -0.146623 -0.254675
Spine  13.9035 -0.997214 3.68701
Spine1  24.7187 -2.77853 4.99811
HEad  -4.67426 8.04619 -2.43647
LeftShoulder1  0 -2.42657e-020 -4.95415e-022
LeftArm  -11.5145 -18.0251 -90.8057
LeftForeArm  45.518 -28.6639 -5.50649
LeftHand  0.441678 -9.04137 -5.95637
RightShoulder  0 2.42657e-020 1.07489e-018
RightArm  -35.4776 19.6787 75.6963
RightForeArm  49.374 17.9495 3.24608
RightHand  -2.11679 22.5204 -10.2356
LeftUpLeg  -24.4471 24.9932 13.834
LeftLeg  25.6802 0.898699 0.359941
LeftFoot  -0.499824 -0.0046996 -1.07741
LeftToes  -33.8342 1.28829e-006 1.15665e-007
